<?xml version="1.0" encoding="UTF-8" standalone="no"?><!-- Generator: Gravit.io --><svg xmlns="http://www.w3.org/2000/svg" xmlns:xlink="http://www.w3.org/1999/xlink" style="isolation:isolate" viewBox="928.482 552.675 105.705 55.37" width="105.705pt" height="55.37pt"><path d=" M 1024.084 608.046 C 1023.259 608.046 1022.537 607.702 1021.986 607.151 L 1010.053 595.424 C 1009.484 594.874 1009.162 594.117 1009.158 593.326 C 1009.158 592.501 1009.434 591.778 1010.053 591.228 C 1010.603 590.609 1011.394 590.334 1012.219 590.334 C 1013.045 590.334 1013.767 590.678 1014.317 591.228 L 1019.407 596.249 C 1017.859 586.344 1013.045 577.162 1005.479 570.318 C 997.297 562.81 986.594 558.649 975.489 558.659 C 957.296 558.659 941.132 569.527 934.288 586.344 C 933.84 587.49 932.733 588.242 931.502 588.236 C 931.09 588.236 930.746 588.167 930.333 588.03 C 929.597 587.727 929.011 587.143 928.708 586.406 C 928.404 585.67 928.407 584.843 928.717 584.109 C 936.524 565.022 954.854 552.675 975.489 552.675 C 988.18 552.675 1000.32 557.421 1009.709 566.054 C 1018.135 573.86 1023.637 584.178 1025.391 595.355 L 1028.452 588.717 C 1028.933 587.617 1030 586.964 1031.169 586.964 C 1031.582 586.964 1032.063 587.032 1032.441 587.239 C 1033.198 587.583 1033.714 588.202 1033.989 588.924 C 1034.264 589.68 1034.264 590.471 1033.92 591.228 L 1026.801 606.257 C 1026.383 607.127 1025.581 607.751 1024.635 607.942 C 1024.428 608.046 1024.291 608.046 1024.084 608.046 L 1024.084 608.046 Z " fill="rgb(255,255,255)"/></svg>